<?xml version="1.0" standalone="no"?>
<!DOCTYPE svg PUBLIC "-//W3C//DTD SVG 20010904//EN"
 "http://www.w3.org/TR/2001/REC-SVG-20010904/DTD/svg10.dtd">
<svg version="1.0" xmlns="http://www.w3.org/2000/svg"
 width="320.000000pt" height="320.000000pt" viewBox="0 0 320.000000 320.000000"
 preserveAspectRatio="xMidYMid meet">
<metadata>
Created by potrace 1.11, written by Peter Selinger 2001-2013
</metadata>
<g transform="translate(0.000000,320.000000) scale(0.100000,-0.100000)"
fill="#000000" stroke="none">
<path d="M0 1600 l0 -1600 1600 0 1600 0 0 1600 0 1600 -1600 0 -1600 0 0
-1600z m680 830 l0 -40 40 0 40 0 0 -80 0 -80 -40 0 -40 0 0 40 0 40 -40 0
-40 0 0 40 0 40 -80 0 -80 0 0 -40 0 -40 -40 0 -40 0 0 -240 0 -240 40 0 40 0
0 -40 0 -40 80 0 80 0 0 40 0 40 40 0 40 0 0 40 0 40 40 0 40 0 0 -80 0 -80
-40 0 -40 0 0 -40 0 -40 -160 0 -160 0 0 40 0 40 -40 0 -40 0 0 40 0 40 -40 0
-40 0 0 240 0 240 40 0 40 0 0 40 0 40 40 0 40 0 0 40 0 40 160 0 160 0 0 -40z
m2240 0 l0 -40 40 0 40 0 0 -320 0 -320 -40 0 -40 0 0 -40 0 -40 -240 0 -240
0 0 40 0 40 -40 0 -40 0 0 320 0 320 40 0 40 0 0 40 0 40 240 0 240 0 0 -40z
m-1200 -80 l0 -40 40 0 40 0 0 -40 0 -40 40 0 40 0 0 -40 0 -40 40 0 40 0 0
-40 0 -40 40 0 40 0 0 -40 0 -40 40 0 40 0 0 -40 0 -40 40 0 40 0 0 -120 0
-120 -40 0 -40 0 0 40 0 40 -40 0 -40 0 0 40 0 40 -40 0 -40 0 0 40 0 40 -40
0 -40 0 0 40 0 40 -40 0 -40 0 0 40 0 40 -40 0 -40 0 0 40 0 40 -40 0 -40 0 0
120 0 120 40 0 40 0 0 -40z m-400 -120 l0 -80 -80 0 -80 0 0 80 0 80 80 0 80
0 0 -80z m0 -400 l0 -80 -80 0 -80 0 0 80 0 80 80 0 80 0 0 -80z m-660 -830
c0 -53 4 -90 10 -90 6 0 10 -4 10 -10 0 -14 -37 -12 -44 3 -5 10 -7 10 -12 0
-8 -17 -52 -16 -70 1 -34 34 3 126 51 126 8 0 15 9 15 20 0 11 -4 20 -10 20
-5 0 -10 5 -10 10 0 6 14 10 30 10 l30 0 0 -90z m186 16 c8 -8 14 -33 14 -56
0 -23 -6 -48 -14 -56 -19 -18 -93 -18 -112 0 -17 18 -19 92 -1 111 16 19 94
19 113 1z m180 0 c19 -20 18 -26 -6 -26 -11 0 -20 5 -20 10 0 6 -13 10 -30 10
-16 0 -30 -3 -30 -6 0 -10 28 -34 40 -34 6 0 22 -11 36 -25 22 -22 23 -27 10
-40 -19 -19 -93 -20 -112 -1 -19 20 -18 26 6 26 11 0 20 -4 20 -10 0 -5 14
-10 30 -10 17 0 30 3 30 6 0 10 -28 34 -40 34 -6 0 -22 11 -36 25 -21 21 -23
27 -12 40 17 19 95 19 114 1z m138 2 c5 -10 7 -10 12 0 7 14 44 16 44 2 0 -5
-4 -10 -10 -10 -6 0 -10 -32 -10 -76 0 -86 -11 -104 -60 -104 -17 0 -38 6 -46
14 -19 20 -18 26 6 26 11 0 20 -4 20 -10 0 -5 9 -10 20 -10 13 0 20 7 20 20 0
15 -7 20 -26 20 -14 0 -32 6 -40 14 -17 18 -19 92 -1 111 15 18 63 19 71 3z
m202 -2 c8 -8 14 -34 14 -60 0 -25 5 -46 10 -46 6 0 10 -4 10 -10 0 -14 -37
-12 -44 3 -5 10 -7 10 -12 0 -8 -17 -52 -16 -70 1 -32 33 -7 86 40 86 14 0 26
5 26 10 0 6 -13 10 -30 10 -16 0 -30 5 -30 10 0 15 70 12 86 -4z m138 2 c5
-10 7 -10 12 0 3 6 12 12 21 12 29 0 43 -27 43 -84 0 -49 -2 -56 -20 -56 -17
0 -20 7 -20 50 0 28 -4 50 -10 50 -5 0 -10 -18 -10 -40 0 -22 -4 -40 -10 -40
-5 0 -10 18 -10 40 0 22 -4 40 -10 40 -5 0 -10 -22 -10 -50 0 -43 -3 -50 -20
-50 -18 0 -20 7 -20 70 l0 70 29 0 c16 0 32 -6 35 -12z m242 -2 c30 -30 17
-46 -36 -46 -49 0 -50 -1 -50 -30 0 -27 3 -30 30 -30 17 0 30 5 30 10 0 6 9
10 20 10 24 0 25 -6 6 -26 -19 -18 -93 -18 -112 0 -17 18 -19 92 -1 111 16 19
94 19 113 1z m180 0 c19 -20 18 -26 -6 -26 -11 0 -20 5 -20 10 0 6 -13 10 -30
10 -16 0 -30 -3 -30 -6 0 -10 28 -34 40 -34 6 0 22 -11 36 -25 22 -22 23 -27
10 -40 -19 -19 -93 -20 -112 -1 -19 20 -18 26 6 26 11 0 20 -4 20 -10 0 -5 14
-10 30 -10 17 0 30 3 30 6 0 10 -28 34 -40 34 -6 0 -22 11 -36 25 -21 21 -23
27 -12 40 17 19 95 19 114 1z m360 0 c19 -20 18 -26 -6 -26 -11 0 -20 5 -20
10 0 6 -13 10 -30 10 -29 0 -30 -1 -30 -50 0 -49 1 -50 30 -50 17 0 30 5 30
10 0 6 9 10 20 10 24 0 25 -6 6 -26 -19 -18 -93 -18 -112 0 -17 18 -19 92 -1
111 16 19 94 19 113 1z m180 0 c18 -19 18 -93 0 -112 -19 -18 -93 -18 -112 0
-17 18 -19 92 -1 111 16 19 94 19 113 1z m118 2 c5 -10 7 -10 12 0 3 6 12 12
21 12 29 0 43 -27 43 -84 0 -49 -2 -56 -20 -56 -17 0 -20 7 -20 50 0 28 -4 50
-10 50 -5 0 -10 -18 -10 -40 0 -22 -4 -40 -10 -40 -5 0 -10 18 -10 40 0 22 -4
40 -10 40 -5 0 -10 -22 -10 -50 0 -43 -3 -50 -20 -50 -18 0 -20 7 -20 70 l0
70 29 0 c16 0 32 -6 35 -12z m-504 -108 c0 -13 -7 -20 -20 -20 -13 0 -20 7
-20 20 0 13 7 20 20 20 13 0 20 -7 20 -20z"/>
<path d="M2520 2270 l0 -40 40 0 40 0 0 40 0 40 -40 0 -40 0 0 -40z"/>
<path d="M2760 2270 l0 -40 40 0 40 0 0 40 0 40 -40 0 -40 0 0 -40z"/>
<path d="M2520 2030 l0 -40 40 0 40 0 0 -40 0 -40 80 0 80 0 0 40 0 40 40 0
40 0 0 40 0 40 -160 0 -160 0 0 -40z"/>
<path d="M593 995 c-7 -8 -13 -30 -13 -50 0 -28 4 -35 20 -35 17 0 20 7 20 50
0 52 -6 59 -27 35z"/>
<path d="M760 960 c0 -49 1 -50 30 -50 29 0 30 1 30 50 0 49 -1 50 -30 50 -29
0 -30 -1 -30 -50z"/>
<path d="M1120 960 c0 -43 3 -50 20 -50 17 0 20 7 20 50 0 43 -3 50 -20 50
-17 0 -20 -7 -20 -50z"/>
<path d="M1300 940 c0 -23 4 -30 20 -30 16 0 20 7 20 30 0 23 -4 30 -20 30
-16 0 -20 -7 -20 -30z"/>
<path d="M1660 1000 c0 -5 14 -10 30 -10 17 0 30 5 30 10 0 6 -13 10 -30 10
-16 0 -30 -4 -30 -10z"/>
<path d="M2380 960 c0 -49 1 -50 30 -50 29 0 30 1 30 50 0 49 -1 50 -30 50
-29 0 -30 -1 -30 -50z"/>
</g>
</svg>
